<mxfile host="drawio-plugin" modified="2023-09-10T01:51:12.658Z" agent="5.0 (X11; Linux x86_64) AppleWebKit/537.36 (KHTML, like Gecko) Chrome/111.0.0.0 Safari/537.36" version="20.5.3" etag="eg1XsngYFkVr0dUP13ag" type="embed"><diagram id="niPSnZ8O01AhBE--9aEZ" name="Page-1"><mxGraphModel dx="884" dy="585" grid="1" gridSize="10" guides="1" tooltips="1" connect="1" arrows="1" fold="1" page="1" pageScale="1" pageWidth="850" pageHeight="1100" math="0" shadow="0"><root><mxCell id="0"/><mxCell id="1" parent="0"/><mxCell id="7" style="edgeStyle=orthogonalEdgeStyle;rounded=0;orthogonalLoop=1;jettySize=auto;html=1;" edge="1" parent="1" source="2" target="4"><mxGeometry relative="1" as="geometry"/></mxCell><mxCell id="2" value="EXTRACT" style="whiteSpace=wrap;html=1;aspect=fixed;" vertex="1" parent="1"><mxGeometry x="170" y="80" width="80" height="80" as="geometry"/></mxCell><mxCell id="6" style="edgeStyle=orthogonalEdgeStyle;rounded=0;orthogonalLoop=1;jettySize=auto;html=1;entryX=0.5;entryY=1;entryDx=0;entryDy=0;" edge="1" parent="1" source="3" target="2"><mxGeometry relative="1" as="geometry"/></mxCell><mxCell id="3" value="CONNECT" style="whiteSpace=wrap;html=1;aspect=fixed;" vertex="1" parent="1"><mxGeometry x="170" y="300" width="80" height="80" as="geometry"/></mxCell><mxCell id="8" style="edgeStyle=orthogonalEdgeStyle;rounded=0;orthogonalLoop=1;jettySize=auto;html=1;entryX=0;entryY=0.5;entryDx=0;entryDy=0;" edge="1" parent="1" source="4" target="5"><mxGeometry relative="1" as="geometry"/></mxCell><mxCell id="4" value="TRANSFORM" style="whiteSpace=wrap;html=1;aspect=fixed;" vertex="1" parent="1"><mxGeometry x="390" y="80" width="80" height="80" as="geometry"/></mxCell><mxCell id="5" value="LOAD" style="whiteSpace=wrap;html=1;aspect=fixed;" vertex="1" parent="1"><mxGeometry x="600" y="80" width="80" height="80" as="geometry"/></mxCell></root></mxGraphModel></diagram></mxfile>